<?xml version="1.0" encoding="UTF-8" standalone="no" ?>
<!DOCTYPE svg PUBLIC "-//W3C//DTD SVG 1.1//EN" "http://www.w3.org/Graphics/SVG/1.1/DTD/svg11.dtd">
<svg xmlns="http://www.w3.org/2000/svg" xmlns:xlink="http://www.w3.org/1999/xlink" version="1.1" width="180" height="128" viewBox="0 0 180 128" xml:space="preserve">
<desc>Created with Fabric.js 4.6.0</desc>
<defs>
</defs>
<g transform="matrix(1 0 0 1 90 64)" id="jZoHxKy2jTQbu1SCfsem0"  >
<path style="stroke: rgb(37,211,5); stroke-width: 0; stroke-dasharray: none; stroke-linecap: butt; stroke-dashoffset: 0; stroke-linejoin: miter; stroke-miterlimit: 4; fill: rgb(0,0,0); fill-rule: nonzero; opacity: 1;" vector-effect="non-scaling-stroke"  transform=" translate(-90, -64)" d="M 0 0 L 180 0 L 180 128 L 0 128 z" stroke-linecap="round" />
</g>
<g transform="matrix(1 0 0 1 36 88)" id="xd8Ds4DFuTHLujrNDlWmI"  >
<path style="stroke: rgb(218,222,108); stroke-width: 0; stroke-dasharray: none; stroke-linecap: butt; stroke-dashoffset: 0; stroke-linejoin: miter; stroke-miterlimit: 4; fill: rgb(191,255,0); fill-rule: nonzero; opacity: 1;" vector-effect="non-scaling-stroke"  transform=" translate(-32, -32)" d="M 32.00001 0 C 49.664010000000005 0 64.00002 14.336 64.00002 31.99999 C 64.00002 49.66399 49.66402000000001 63.99998 32.00001 63.99998 C 14.336010000000002 63.99998 0 49.66398 0 31.99999 C 0 14.335989999999999 14.336 0 32.00001 0 z" stroke-linecap="round" />
</g>
<g transform="matrix(1 0 0 1 36 72)" id="vs4QAgnVx88yxUemBFY5G"  >
<path style="stroke: rgb(245,184,231); stroke-width: 0; stroke-dasharray: none; stroke-linecap: butt; stroke-dashoffset: 0; stroke-linejoin: miter; stroke-miterlimit: 4; fill: rgb(0,0,0); fill-rule: nonzero; opacity: 1;" vector-effect="non-scaling-stroke"  transform=" translate(-32, -16)" d="M 0 0 L 64 0 L 64 32 L 0 32 z" stroke-linecap="round" />
</g>
<g transform="matrix(1 0 0 1 36 36)" id="MV3zUDcNhH985MZA4R_0R"  >
<path style="stroke: rgb(218,222,108); stroke-width: 0; stroke-dasharray: none; stroke-linecap: butt; stroke-dashoffset: 0; stroke-linejoin: miter; stroke-miterlimit: 4; fill: rgb(191,255,0); fill-rule: nonzero; opacity: 1;" vector-effect="non-scaling-stroke"  transform=" translate(-32, -32)" d="M 32.00001 0 C 49.664010000000005 0 64.00002 14.336 64.00002 31.99999 C 64.00002 49.66399 49.66402000000001 63.99998 32.00001 63.99998 C 14.336010000000002 63.99998 0 49.66398 0 31.99999 C 0 14.335989999999999 14.336 0 32.00001 0 z" stroke-linecap="round" />
</g>
<g transform="matrix(1 0 0 1 88 44)" id="fO0uo7-7K49yUNvOA84gC"  >
<path style="stroke: rgb(243,89,229); stroke-width: 0; stroke-dasharray: none; stroke-linecap: butt; stroke-dashoffset: 0; stroke-linejoin: miter; stroke-miterlimit: 4; fill: rgb(191,255,0); fill-rule: nonzero; opacity: 1;" vector-effect="non-scaling-stroke"  transform=" translate(-16, -16)" d="M 16 0 C 24.832 0 32 7.168 32 16 C 32 24.832 24.832 32 16 32 C 7.167999999999999 32 0 24.832 0 16 C 0 7.167999999999999 7.168 0 16 0 z" stroke-linecap="round" />
</g>
<g transform="matrix(1 0 0 1 124 44)" id="f1-HmhR-fDIXP9An5DyHL"  >
<path style="stroke: rgb(243,89,229); stroke-width: 0; stroke-dasharray: none; stroke-linecap: butt; stroke-dashoffset: 0; stroke-linejoin: miter; stroke-miterlimit: 4; fill: rgb(191,255,0); fill-rule: nonzero; opacity: 1;" vector-effect="non-scaling-stroke"  transform=" translate(-16, -16)" d="M 16 0 C 24.832 0 32 7.168 32 16 C 32 24.832 24.832 32 16 32 C 7.167999999999999 32 0 24.832 0 16 C 0 7.167999999999999 7.168 0 16 0 z" stroke-linecap="round" />
</g>
<g transform="matrix(1 0 0 1 160 44)" id="MEpCq-pdI0NeOlBn7lxcA"  >
<path style="stroke: rgb(243,89,229); stroke-width: 0; stroke-dasharray: none; stroke-linecap: butt; stroke-dashoffset: 0; stroke-linejoin: miter; stroke-miterlimit: 4; fill: rgb(191,255,0); fill-rule: nonzero; opacity: 1;" vector-effect="non-scaling-stroke"  transform=" translate(-16, -16)" d="M 16 0 C 24.832 0 32 7.168 32 16 C 32 24.832 24.832 32 16 32 C 7.167999999999999 32 0 24.832 0 16 C 0 7.167999999999999 7.168 0 16 0 z" stroke-linecap="round" />
</g>
<g transform="matrix(1 0 0 1 88 36)" id="qIrNtcpvPC9z2nXkRy9to"  >
<path style="stroke: rgb(245,184,231); stroke-width: 0; stroke-dasharray: none; stroke-linecap: butt; stroke-dashoffset: 0; stroke-linejoin: miter; stroke-miterlimit: 4; fill: rgb(0,0,0); fill-rule: nonzero; opacity: 1;" vector-effect="non-scaling-stroke"  transform=" translate(-16, -8)" d="M 0 0 L 32 0 L 32 16 L 0 16 z" stroke-linecap="round" />
</g>
<g transform="matrix(1 0 0 1 132 44)" id="m1yLRyBZOFVZh3ccx8xcc"  >
<path style="stroke: rgb(245,184,231); stroke-width: 0; stroke-dasharray: none; stroke-linecap: butt; stroke-dashoffset: 0; stroke-linejoin: miter; stroke-miterlimit: 4; fill: rgb(0,0,0); fill-rule: nonzero; opacity: 1;" vector-effect="non-scaling-stroke"  transform=" translate(-8, -16)" d="M 0 0 L 16 0 L 16 32 L 0 32 z" stroke-linecap="round" />
</g>
<g transform="matrix(1 0 0 1 52 36)" id="xF3dzQH2Tiulq7kcVpiaW"  >
<path style="stroke: rgb(245,184,231); stroke-width: 0; stroke-dasharray: none; stroke-linecap: butt; stroke-dashoffset: 0; stroke-linejoin: miter; stroke-miterlimit: 4; fill: rgb(0,0,0); fill-rule: nonzero; opacity: 1;" vector-effect="non-scaling-stroke"  transform=" translate(-16, -32)" d="M 0 0 L 32 0 L 32 64 L 0 64 z" stroke-linecap="round" />
</g>
<g transform="matrix(1 0 0 1 36 36)" id="aRaOeDiDOXCwVwBqHKtK8"  >
<path style="stroke: rgb(75,116,4); stroke-width: 0; stroke-dasharray: none; stroke-linecap: butt; stroke-dashoffset: 0; stroke-linejoin: miter; stroke-miterlimit: 4; fill: rgb(0,0,0); fill-rule: nonzero; opacity: 1;" vector-effect="non-scaling-stroke"  transform=" translate(-16, -16)" d="M 16 0 C 24.832 0 32 7.168 32 16 C 32 24.832 24.832 32 16 32 C 7.167999999999999 32 0 24.832 0 16 C 0 7.167999999999999 7.168 0 16 0 z" stroke-linecap="round" />
</g>
<g transform="matrix(1 0 0 1 36 88)" id="W87uepBsNTN0xY7SYWXKb"  >
<path style="stroke: rgb(75,116,4); stroke-width: 0; stroke-dasharray: none; stroke-linecap: butt; stroke-dashoffset: 0; stroke-linejoin: miter; stroke-miterlimit: 4; fill: rgb(0,0,0); fill-rule: nonzero; opacity: 1;" vector-effect="non-scaling-stroke"  transform=" translate(-16, -16)" d="M 16 0 C 24.832 0 32 7.168 32 16 C 32 24.832 24.832 32 16 32 C 7.167999999999999 32 0 24.832 0 16 C 0 7.167999999999999 7.168 0 16 0 z" stroke-linecap="round" />
</g>
<g transform="matrix(1 0 0 1 88 44)" id="Y5QsBMQ_vQIPHzE68m-cc"  >
<path style="stroke: rgb(119,160,87); stroke-width: 0; stroke-dasharray: none; stroke-linecap: butt; stroke-dashoffset: 0; stroke-linejoin: miter; stroke-miterlimit: 4; fill: rgb(0,0,0); fill-rule: nonzero; opacity: 1;" vector-effect="non-scaling-stroke"  transform=" translate(-8, -8)" d="M 8 0 C 12.416 0 16 3.584 16 8 C 16 12.416 12.416 16 8 16 C 3.5839999999999996 16 0 12.416 0 8 C 0 3.5839999999999996 3.584 0 8 0 z" stroke-linecap="round" />
</g>
<g transform="matrix(1 0 0 1 124 44)" id="fmVwCJotUAJJjjNs2Pc3p"  >
<path style="stroke: rgb(119,160,87); stroke-width: 0; stroke-dasharray: none; stroke-linecap: butt; stroke-dashoffset: 0; stroke-linejoin: miter; stroke-miterlimit: 4; fill: rgb(0,0,0); fill-rule: nonzero; opacity: 1;" vector-effect="non-scaling-stroke"  transform=" translate(-8, -8)" d="M 8 0 C 12.416 0 16 3.584 16 8 C 16 12.416 12.416 16 8 16 C 3.5839999999999996 16 0 12.416 0 8 C 0 3.5839999999999996 3.584 0 8 0 z" stroke-linecap="round" />
</g>
<g transform="matrix(1 0 0 1 160 44)" id="rOaz401u2aNRhgD32lK6r"  >
<path style="stroke: rgb(119,160,87); stroke-width: 0; stroke-dasharray: none; stroke-linecap: butt; stroke-dashoffset: 0; stroke-linejoin: miter; stroke-miterlimit: 4; fill: rgb(0,0,0); fill-rule: nonzero; opacity: 1;" vector-effect="non-scaling-stroke"  transform=" translate(-8, -8)" d="M 8 0 C 12.416 0 16 3.584 16 8 C 16 12.416 12.416 16 8 16 C 3.5839999999999996 16 0 12.416 0 8 C 0 3.5839999999999996 3.584 0 8 0 z" stroke-linecap="round" />
</g>
<g transform="matrix(1 0 0 1 60 46)" id="HPccImXVIGR8lCMr1WJT_"  >
<path style="stroke: rgb(169,71,230); stroke-width: 0; stroke-dasharray: none; stroke-linecap: butt; stroke-dashoffset: 0; stroke-linejoin: miter; stroke-miterlimit: 4; fill: rgb(191,255,0); fill-rule: nonzero; opacity: 1;" vector-effect="non-scaling-stroke"  transform=" translate(-8, -42)" d="M 0 0 L 16 0 L 16 84 L 0 84 z" stroke-linecap="round" />
</g>
<g transform="matrix(2 0 0 0.19 52 12)" id="dKo9O3cznxbfu7jC2juMt"  >
<path style="stroke: rgb(169,71,230); stroke-width: 0; stroke-dasharray: none; stroke-linecap: butt; stroke-dashoffset: 0; stroke-linejoin: miter; stroke-miterlimit: 4; fill: rgb(191,255,0); fill-rule: nonzero; opacity: 1;" vector-effect="non-scaling-stroke"  transform=" translate(0, 0)" d="M -8 -42 L 8 -42 L 8 42 L -8 42 z" stroke-linecap="round" />
</g>
<g transform="matrix(0.5 0 0 0.19 40 59.98)" id="XpvYZ0zoBCGPMpVWYmVst"  >
<path style="stroke: rgb(169,71,230); stroke-width: 0; stroke-dasharray: none; stroke-linecap: butt; stroke-dashoffset: 0; stroke-linejoin: miter; stroke-miterlimit: 4; fill: rgb(191,255,0); fill-rule: nonzero; opacity: 1;" vector-effect="non-scaling-stroke"  transform=" translate(0, 0)" d="M -8 -42 L 8 -42 L 8 42 L -8 42 z" stroke-linecap="round" />
</g>
<g transform="matrix(1 0 0 1 76 36)" id="doJZmVVb197XsEEui6JQ_"  >
<path style="stroke: rgb(169,71,230); stroke-width: 0; stroke-dasharray: none; stroke-linecap: butt; stroke-dashoffset: 0; stroke-linejoin: miter; stroke-miterlimit: 4; fill: rgb(191,255,0); fill-rule: nonzero; opacity: 1;" vector-effect="non-scaling-stroke"  transform=" translate(-4, -8)" d="M 0 0 L 8 0 L 8 16 L 0 16 z" stroke-linecap="round" />
</g>
<g transform="matrix(1 0 0 1 100 36)" id="AgZF6cxfpcIp_HGmCcDXV"  >
<path style="stroke: rgb(169,71,230); stroke-width: 0; stroke-dasharray: none; stroke-linecap: butt; stroke-dashoffset: 0; stroke-linejoin: miter; stroke-miterlimit: 4; fill: rgb(191,255,0); fill-rule: nonzero; opacity: 1;" vector-effect="non-scaling-stroke"  transform=" translate(-4, -8)" d="M 0 0 L 8 0 L 8 16 L 0 16 z" stroke-linecap="round" />
</g>
<g transform="matrix(1 0 0 1 132 56)" id="HTXLycRsroc4IdUQzj4gM"  >
<path style="stroke: rgb(169,71,230); stroke-width: 0; stroke-dasharray: none; stroke-linecap: butt; stroke-dashoffset: 0; stroke-linejoin: miter; stroke-miterlimit: 4; fill: rgb(191,255,0); fill-rule: nonzero; opacity: 1;" vector-effect="non-scaling-stroke"  transform=" translate(-8, -4)" d="M 0 0 L 16 0 L 16 8 L 0 8 z" stroke-linecap="round" />
</g>
<g transform="matrix(1 0 0 1 12 84)" id="iIvKnN55En9LvnffitO8s"  >
<path style="stroke: rgb(169,71,230); stroke-width: 0; stroke-dasharray: none; stroke-linecap: butt; stroke-dashoffset: 0; stroke-linejoin: miter; stroke-miterlimit: 4; fill: rgb(191,255,0); fill-rule: nonzero; opacity: 1;" vector-effect="non-scaling-stroke"  transform=" translate(-8, -4)" d="M 0 0 L 16 0 L 16 8 L 0 8 z" stroke-linecap="round" />
</g>
<g transform="matrix(1 0 0 1 126 32)" id="DeCm249Ez_urwya93nzQK"  >
<path style="stroke: rgb(169,71,230); stroke-width: 0; stroke-dasharray: none; stroke-linecap: butt; stroke-dashoffset: 0; stroke-linejoin: miter; stroke-miterlimit: 4; fill: rgb(191,255,0); fill-rule: nonzero; opacity: 1;" vector-effect="non-scaling-stroke"  transform=" translate(-2, -4)" d="M 0 0 L 4 0 L 4 8 L 0 8 z" stroke-linecap="round" />
</g>
<g transform="matrix(1 0 0 1 136 32)" id="5s_tvxwjmgM0dKYeO_192"  >
<path style="stroke: rgb(169,71,230); stroke-width: 0; stroke-dasharray: none; stroke-linecap: butt; stroke-dashoffset: 0; stroke-linejoin: miter; stroke-miterlimit: 4; fill: rgb(191,255,0); fill-rule: nonzero; opacity: 1;" vector-effect="non-scaling-stroke"  transform=" translate(-4, -28)" d="M 0 0 L 8 0 L 8 56 L 0 56 z" stroke-linecap="round" />
</g>
</svg>