<?xml version="1.0" encoding="UTF-8" standalone="no" ?>
<!DOCTYPE svg PUBLIC "-//W3C//DTD SVG 1.1//EN" "http://www.w3.org/Graphics/SVG/1.1/DTD/svg11.dtd">
<svg xmlns="http://www.w3.org/2000/svg" xmlns:xlink="http://www.w3.org/1999/xlink" version="1.1" width="180" height="128" viewBox="0 0 180 128" xml:space="preserve">
<desc>Created with Fabric.js 4.6.0</desc>
<defs>
</defs>
<g transform="matrix(1 0 0 1 90 64)" id="jZoHxKy2jTQbu1SCfsem0"  >
<path style="stroke-width: 0; fill: rgb(0,0,0); fill-rule: nonzero; opacity: 1;" vector-effect="non-scaling-stroke"  transform=" translate(-90, -64)" d="M 0 0 L 180 0 L 180 128 L 0 128 z" stroke-linecap="round" />
</g>
<g transform="matrix(1 0 0 1 36 88)" id="xd8Ds4DFuTHLujrNDlWmI"  >
<circle cx="0" cy="0" r="32" style="stroke-width: 0; fill: rgb(191,255,0); fill-rule: nonzero; opacity: 1;"/>
</g>
<g transform="matrix(1 0 0 1 36 72)" id="vs4QAgnVx88yxUemBFY5G"  >
<path style="stroke-width: 0; fill: rgb(0,0,0); fill-rule: nonzero; opacity: 1;" vector-effect="non-scaling-stroke"  transform=" translate(-32, -16)" d="M 0 0 L 64 0 L 64 32 L 0 32 z" stroke-linecap="round" />
</g>
<g transform="matrix(1 0 0 1 36 36)" id="MV3zUDcNhH985MZA4R_0R"  >
<circle cx="0" cy="0" r="32" style="stroke-width: 0; fill: rgb(191,255,0); fill-rule: nonzero; opacity: 1;"/>
</g>
<g transform="matrix(1 0 0 1 88 44)" id="fO0uo7-7K49yUNvOA84gC"  >
<circle cx="0" cy="0" r="16" style="stroke-width: 0; fill: rgb(191,255,0); fill-rule: nonzero; opacity: 1;"/>
</g>
<g transform="matrix(1 0 0 1 124 44)" id="f1-HmhR-fDIXP9An5DyHL"  >
<circle cx="0" cy="0" r="16" style="stroke-width: 0; fill: rgb(191,255,0); fill-rule: nonzero; opacity: 1;"/>
</g>
<g transform="matrix(1 0 0 1 160 44)" id="MEpCq-pdI0NeOlBn7lxcA"  >
<circle cx="0" cy="0" r="16" style="stroke-width: 0; fill: rgb(191,255,0); fill-rule: nonzero; opacity: 1;"/>
</g>
<g transform="matrix(1 0 0 1 88 36)" id="qIrNtcpvPC9z2nXkRy9to"  >
<path style="stroke-width: 0; fill: rgb(0,0,0); fill-rule: nonzero; opacity: 1;" vector-effect="non-scaling-stroke"  transform=" translate(-16, -8)" d="M 0 0 L 32 0 L 32 16 L 0 16 z" stroke-linecap="round" />
</g>
<g transform="matrix(1 0 0 1 132 44)" id="m1yLRyBZOFVZh3ccx8xcc"  >
<path style="stroke-width: 0; fill: rgb(0,0,0); fill-rule: nonzero; opacity: 1;" vector-effect="non-scaling-stroke"  transform=" translate(-8, -16)" d="M 0 0 L 16 0 L 16 32 L 0 32 z" stroke-linecap="round" />
</g>
<g transform="matrix(1 0 0 1 52 36)" id="xF3dzQH2Tiulq7kcVpiaW"  >
<path style="stroke-width: 0; fill: rgb(0,0,0); fill-rule: nonzero; opacity: 1;" vector-effect="non-scaling-stroke"  transform=" translate(-16, -32)" d="M 0 0 L 32 0 L 32 64 L 0 64 z" stroke-linecap="round" />
</g>
<g transform="matrix(1 0 0 1 36 36)" id="aRaOeDiDOXCwVwBqHKtK8"  >
<circle cx="0" cy="0" r="16" style="stroke-width: 0; fill: rgb(0,0,0); fill-rule: nonzero; opacity: 1;"/>
</g>
<g transform="matrix(1 0 0 1 36 88)" id="W87uepBsNTN0xY7SYWXKb"  >
<circle cx="0" cy="0" r="16" style="stroke-width: 0; fill: rgb(0,0,0); fill-rule: nonzero; opacity: 1;"/>
</g>
<g transform="matrix(1 0 0 1 88 44)" id="Y5QsBMQ_vQIPHzE68m-cc"  >
<circle cx="0" cy="0" r="8" style="stroke-width: 0; fill: rgb(0,0,0); fill-rule: nonzero; opacity: 1;"/>
</g>
<g transform="matrix(1 0 0 1 124 44)" id="fmVwCJotUAJJjjNs2Pc3p"  >
<circle cx="0" cy="0" r="8" style="stroke-width: 0; fill: rgb(0,0,0); fill-rule: nonzero; opacity: 1;"/>
</g>
<g transform="matrix(1 0 0 1 160 44)" id="rOaz401u2aNRhgD32lK6r"  >
<circle cx="0" cy="0" r="8" style="stroke-width: 0; fill: rgb(0,0,0); fill-rule: nonzero; opacity: 1;"/>
</g>
<g transform="matrix(1 0 0 1 60 46)" id="HPccImXVIGR8lCMr1WJT_"  >
<path style="stroke-width: 0; fill: rgb(191,255,0); fill-rule: nonzero; opacity: 1;" vector-effect="non-scaling-stroke"  transform=" translate(-8, -42)" d="M 0 0 L 16 0 L 16 84 L 0 84 z" stroke-linecap="round" />
</g>
<g transform="matrix(1 0 0 1 12 84)" id="dKo9O3cznxbfu7jC2juMt"  >
<path style="stroke-width: 0; fill: rgb(191,255,0); fill-rule: nonzero; opacity: 1;" vector-effect="non-scaling-stroke"  transform=" translate(24, -80)" d="M 0 0 L 32 0 L 32 16 L 0 16 z" stroke-linecap="round" />
</g>
<g transform="matrix(1 0 0 1 76 36)" id="XpvYZ0zoBCGPMpVWYmVst"  >
<path style="stroke-width: 0; fill: rgb(191,255,0); fill-rule: nonzero; opacity: 1;" vector-effect="non-scaling-stroke"  transform=" translate(-40, 16)" d="M 0 0 L 8 0 L 8 16 L 0 16 z" stroke-linecap="round" />
</g>
<g transform="matrix(1 0 0 1 76 36)" id="doJZmVVb197XsEEui6JQ_"  >
<path style="stroke-width: 0; fill: rgb(191,255,0); fill-rule: nonzero; opacity: 1;" vector-effect="non-scaling-stroke"  transform=" translate(-4, -8)" d="M 0 0 L 8 0 L 8 16 L 0 16 z" stroke-linecap="round" />
</g>
<g transform="matrix(1 0 0 1 100 36)" id="AgZF6cxfpcIp_HGmCcDXV"  >
<path style="stroke-width: 0; fill: rgb(191,255,0); fill-rule: nonzero; opacity: 1;" vector-effect="non-scaling-stroke"  transform=" translate(-4, -8)" d="M 0 0 L 8 0 L 8 16 L 0 16 z" stroke-linecap="round" />
</g>
<g transform="matrix(1 0 0 1 132 56)" id="HTXLycRsroc4IdUQzj4gM"  >
<path style="stroke-width: 0; fill: rgb(191,255,0); fill-rule: nonzero; opacity: 1;" vector-effect="non-scaling-stroke"  transform=" translate(-8, -4)" d="M 0 0 L 16 0 L 16 8 L 0 8 z" stroke-linecap="round" />
</g>
<g transform="matrix(1 0 0 1 12 84)" id="iIvKnN55En9LvnffitO8s"  >
<path style="stroke-width: 0; fill: rgb(191,255,0); fill-rule: nonzero; opacity: 1;" vector-effect="non-scaling-stroke"  transform=" translate(-8, -4)" d="M 0 0 L 16 0 L 16 8 L 0 8 z" stroke-linecap="round" />
</g>
<g transform="matrix(1 0 0 1 126 32)" id="DeCm249Ez_urwya93nzQK"  >
<path style="stroke-width: 0; fill: rgb(191,255,0); fill-rule: nonzero; opacity: 1;" vector-effect="non-scaling-stroke"  transform=" translate(-2, -4)" d="M 0 0 L 4 0 L 4 8 L 0 8 z" stroke-linecap="round" />
</g>
<g transform="matrix(1 0 0 1 136 32)" id="5s_tvxwjmgM0dKYeO_192"  >
<path style="stroke-width: 0; fill: rgb(191,255,0); fill-rule: nonzero; opacity: 1;" vector-effect="non-scaling-stroke"  transform=" translate(-4, -28)" d="M 0 0 L 8 0 L 8 56 L 0 56 z" stroke-linecap="round" />
</g>
</svg>